<?xml version="1.0" encoding="UTF-8" standalone="no"?>
<!-- Created with Inkscape (http://www.inkscape.org/) -->

<svg
   version="1.1"
   id="svg2"
   width="680.26666"
   height="166.17332"
   viewBox="0 0 680.26666 166.17332"
   sodipodi:docname="arkdes_logotyp_svart_cmyk.eps"
   xmlns:inkscape="http://www.inkscape.org/namespaces/inkscape"
   xmlns:sodipodi="http://sodipodi.sourceforge.net/DTD/sodipodi-0.dtd"
   xmlns="http://www.w3.org/2000/svg"
   xmlns:svg="http://www.w3.org/2000/svg">
  <defs
     id="defs6" />
  <sodipodi:namedview
     id="namedview4"
     pagecolor="#ffffff"
     bordercolor="#000000"
     borderopacity="0.25"
     inkscape:showpageshadow="2"
     inkscape:pageopacity="0.0"
     inkscape:pagecheckerboard="0"
     inkscape:deskcolor="#d1d1d1" />
  <g
     id="g8"
     inkscape:groupmode="layer"
     inkscape:label="ink_ext_XXXXXX"
     transform="matrix(1.3333333,0,0,-1.3333333,0,166.17333)">
    <g
       id="g10"
       transform="scale(0.1)">
      <path
         d="M 424.219,1209.45 0,16.7617 H 274.043 L 350.977,247.559 H 770.391 L 847.344,16.7617 H 1121.41 L 697.109,1209.45 H 424.219 Z M 560.684,875.078 692.93,478.301 H 428.438 l 132.246,396.777 v 0"
         style="fill:#ffffff;fill-opacity:1;fill-rule:nonzero;stroke:none"
         id="path12" />
      <path
         d="M 1171.52,16.7617 V 874.863 h 240.77 v -55.8 c 36.66,36.601 88.65,72.539 169.86,72.539 123.57,0 213.28,-85.489 213.28,-203.204 0,-91.21 -23.13,-154.96 -24.1,-157.714 l -2.62,-7.032 H 1567.5 l 4.34,14.063 c 0.07,0.176 7.91,25.664 7.91,51.973 0,56.503 -20.65,79.55 -71.2,79.55 -62.07,0 -96.26,-60.918 -96.26,-171.543 V 16.7617 h -240.77 v 0"
         style="fill:#ffffff;fill-opacity:1;fill-rule:nonzero;stroke:none"
         id="path14" />
      <path
         d="M 1860.23,1246.29 V 16.7617 h 239.13 V 364.277 L 2338.87,16.7617 h 284.08 L 2287.89,492.012 2615.57,874.863 H 2322.66 L 2099.36,600 v 646.29 h -239.13 v 0"
         style="fill:#ffffff;fill-opacity:1;fill-rule:nonzero;stroke:none"
         id="path16" />
      <path
         d="M 2685.18,16.7617 V 1209.45 h 382.09 c 163.65,0 301.28,-54.25 398.32,-156.83 C 3567.77,944.375 3621.8,783.73 3621.8,587.988 3621.8,427.969 3571.76,284.18 3480.76,183.219 3382.68,74.2383 3241.41,16.7617 3072.25,16.7617 h -387.07 z m 380.39,230.6793 c 182.93,0 291.97,124.805 291.97,333.926 0,148.379 -38.5,397.344 -296.95,397.344 h -119.71 v -731.27 h 124.69 v 0"
         style="fill:#ffffff;fill-opacity:1;fill-rule:nonzero;stroke:none"
         id="path18" />
      <path
         d="m 4066.35,0 c -252.78,0 -403.89,160.371 -403.89,429.082 0,126.797 33.46,241.133 94.22,322.07 68.91,91.856 171.39,140.45 296.31,140.45 195.47,0 332.05,-135.84 332.05,-330.332 0,-92.696 -24.61,-169.161 -25.66,-172.383 l -2.47,-7.442 h -463.36 c 4.93,-114.433 62.99,-172.386 172.8,-172.386 88.47,0 97.97,47.347 97.97,67.796 0,11.543 -2.93,21.973 -2.93,22.149 l -3.93,13.652 h 195.18 l 2.93,-6.093 c 0.58,-1.231 14.41,-31.172 14.41,-74.942 C 4369.98,72.4805 4212.6,0 4066.35,0 m 99.2,561.973 c 1.52,18.75 0.58,54.531 -23.73,83.105 -21.16,24.902 -55.02,37.52 -100.55,37.52 -104.59,0 -134.59,-79.024 -139.04,-120.625 h 263.32 v 0"
         style="fill:#ffffff;fill-opacity:1;fill-rule:nonzero;stroke:none"
         id="path20" />
      <path
         d="m 4669.04,335.625 c -0.06,-0.234 -10.43,-23.73 -10.43,-52.148 0,-61.528 61.47,-74.418 113.03,-74.418 63.63,0 104.71,23.91 104.71,61.117 0,47.109 -42.95,65.859 -139.1,89.883 l -9.73,2.402 c -131.02,31.758 -279.49,67.793 -279.49,257.363 0,166.602 122.05,270.059 318.57,270.059 155.33,0 312.01,-72.637 312.01,-234.961 0,-45.156 -14.06,-74.024 -14.65,-75.547 l -215.8,0.117 c 0.06,0.176 6.33,20.918 6.33,40.332 0,46.27 -44.47,62.774 -86.19,62.774 -61.35,0 -97.97,-21.602 -97.97,-57.793 0,-32.774 36.8,-53.516 135.53,-76.485 131.95,-30.058 296.13,-67.441 296.13,-266.484 C 5101.99,102.77 4980.41,0 4768.3,0 c -204.78,0 -337.09,96.8008 -337.09,246.738 0,54.024 21.56,87.071 22.5,88.711 l 215.33,0.176 v 0"
         style="fill:#ffffff;fill-opacity:1;fill-rule:nonzero;stroke:none"
         id="path22" />
    </g>
  </g>
</svg>
